<mxfile host="app.diagrams.net" modified="2023-03-24T22:40:00.204Z" agent="Mozilla/5.0 (Windows NT 10.0; Win64; x64) AppleWebKit/537.36 (KHTML, like Gecko) Chrome/111.0.0.0 Safari/537.36" etag="Ldf9SknmUL2r63oE30vZ" version="21.1.0" type="github">
  <diagram name="Page-1" id="wtwTnYAscXcuDIGFXOiX">
    <mxGraphModel dx="880" dy="484" grid="1" gridSize="10" guides="1" tooltips="1" connect="1" arrows="1" fold="1" page="1" pageScale="1" pageWidth="850" pageHeight="1100" math="0" shadow="0">
      <root>
        <mxCell id="0" />
        <mxCell id="1" parent="0" />
        <mxCell id="0JlcXN97Sx7PDSWyVPXv-1" value="" style="rounded=1;whiteSpace=wrap;html=1;" vertex="1" parent="1">
          <mxGeometry x="60" y="40" width="70" height="40" as="geometry" />
        </mxCell>
        <object label="DNS" id="0JlcXN97Sx7PDSWyVPXv-2">
          <mxCell style="text;html=1;strokeColor=none;fillColor=none;align=center;verticalAlign=middle;whiteSpace=wrap;rounded=0;" vertex="1" parent="1">
            <mxGeometry x="65" y="45" width="60" height="30" as="geometry" />
          </mxCell>
        </object>
        <mxCell id="0JlcXN97Sx7PDSWyVPXv-3" value="" style="whiteSpace=wrap;html=1;aspect=fixed;" vertex="1" parent="1">
          <mxGeometry x="40" y="220" width="125" height="125" as="geometry" />
        </mxCell>
        <mxCell id="0JlcXN97Sx7PDSWyVPXv-4" value="Client/User" style="text;html=1;strokeColor=none;fillColor=none;align=center;verticalAlign=middle;whiteSpace=wrap;rounded=0;" vertex="1" parent="1">
          <mxGeometry x="70" y="315" width="60" height="30" as="geometry" />
        </mxCell>
        <mxCell id="0JlcXN97Sx7PDSWyVPXv-5" value="" style="shape=trapezoid;perimeter=trapezoidPerimeter;whiteSpace=wrap;html=1;fixedSize=1;" vertex="1" parent="1">
          <mxGeometry x="47.5" y="290" width="110" height="20" as="geometry" />
        </mxCell>
        <mxCell id="0JlcXN97Sx7PDSWyVPXv-6" value="" style="rounded=0;whiteSpace=wrap;html=1;" vertex="1" parent="1">
          <mxGeometry x="68.13" y="250" width="68.75" height="40" as="geometry" />
        </mxCell>
      </root>
    </mxGraphModel>
  </diagram>
</mxfile>
